<?xml version="1.0" encoding="utf-8"?>
<!-- Generator: Adobe Illustrator 27.2.0, SVG Export Plug-In . SVG Version: 6.00 Build 0)  -->
<svg version="1.1" id="Layer_1" xmlns="http://www.w3.org/2000/svg" xmlns:xlink="http://www.w3.org/1999/xlink" x="0px" y="0px"
	 viewBox="0 0 612 792" style="enable-background:new 0 0 612 792;" xml:space="preserve">
<style type="text/css">
	.st0{fill:#3EBAEC;}
</style>
<g>
	<g>
		<path class="st0" d="M512.2,165.6c-10.5,2.1-20.9,7.2-31.3,7.2c-117.5,0.5-235,0.4-352.5,0.4c-3.6,0-9,0.8-10.5-1.2
			c-10-12.3-22.6-4-35.7-6.7c0,7.1-0.8,11.8,0.2,16.2c2,10,7.2,19.8,7.2,29.7c0.5,118,0.4,236,0.3,354c0,3.6,0.7,8.8-1.3,10.5
			c-12,10.2-4.1,22.5-6.1,34.2h33.3c-4-13.7,1-23.3,12.5-28.8c23.8-11.3,47.2-24.1,72.1-32.5c24.7-8.3,50.8-12.2,74.8,5.4
			c6.3,4.6,10.6,0.5,13.2-6.4c3.9-10.5,7-21.8,13.3-30.8c21.2-30.6,43.6-60.3,68.1-93.9c7.8,10.8,13.5,18.6,17.5,24.2
			c16.9-16.8,32-31.7,49.1-48.7c-21.1-20.5-43.2-42.1-65.7-63.9c37.2-37.2,73.6-74,110.3-110.2c12.8-12.7,22.7-30.9,45.4-26.2v-32.6
			C521.1,165.5,516.5,164.8,512.2,165.6z M270.2,530.2c-34.4-12.1-68.8-2.2-102.9,11.1c-1.8-1.9-3.6-3.9-5.4-5.8
			c19.1-16.4,38-33,57.3-49c2.1-1.8,6.8-0.8,10.3-0.5c17.3,1.3,31.1-10.2,31.5-26.7c0.4-16-12.7-28.5-29-27.6
			c-16.5,0.9-27.4,15-25.6,32.4c0.4,4-0.1,9.5-2.5,12c-16.3,17.2-33.3,33.8-53,53.6c11.6-38.2,24.4-72.4,10.9-107.1
			c39.3-28.4,78-56.2,115.9-83.5c24.8,24.8,50.2,50.3,75.8,75.8C326.9,451.6,299.2,489.9,270.2,530.2z M223.6,458.9
			c3-3.3,5.9-9.1,9.2-9.4c3.9-0.4,8.2,4,15.6,8.2c-6.7,5.1-10.5,10.2-13.5,9.7C230.8,466.8,227.3,462,223.6,458.9z M408.3,403.6
			c-4.9,4.3-11.8,10.6-17.8,15.9c-38.4-38.4-78.8-79-120-120.2c5.3-5.2,11.8-11.5,17.3-16.9C328.3,323.1,368.4,363.4,408.3,403.6z
			 M471,200.2c-2.3,0.8-6.1,3.3-5.9,3.9c4,10.8-3.7,12.7-10.6,17.7c-8.6,6.3-14.2,16.7-21.2,25.3c-1.1,1.3-2.7,2.2-5.5,4.4
			c-3.4-4-6.1-8.6-10-11.3c-3-2.1-7.6-2-11.5-2.9c1.1,4,1.5,8.4,3.6,11.8c2.3,3.8,6.1,6.6,10.7,11.4c-3.3,1.7-6.3,4.5-9.2,4.4
			c-4.6-0.1-9.1-2.2-13.7-3.3c1.3,4.9,2.6,9.8,4.3,16.4c0.5-1.3,0.4,0.1-0.2,0.3c-5.7,2.3-8.9,5.9-16.3,16.1
			c-1.2,1.6-5.4,0.7-8.1,1.7c-3.1,1.1-8.4,2.5-8.6,4.4c-1.7,13.7-1.4,13.7-9.8,19.3c-2.2-5.7-3.2-12.9-7.3-17.3
			c-3.8-4.2-10.8-5.5-17.6-8.7c-0.5-2.2-0.5-8.2-3.3-12c-1.6-2.1-8.1-0.4-11.5-0.4c-1.4-5.3-1.7-12.1-5-16.4
			c-2.7-3.5-9.3-3.9-13.6-5.5c-3.4-6.1-6.6-13.4-11.3-19.6c-1.5-2.1-6.8-1.5-10.3-2.1c0.7,3.2,0.9,6.8,2.3,9.6
			c1.6,3.1,4.5,5.5,9,10.9c-2.5,1.1-4.7,3-6.7,2.8c-8.6-0.8-19.2-4.5-11.6,11.3c0.2,0.5-0.6,1.8-1.3,2.3
			c-9.2,7.9-18.4,15.7-29.1,24.6c0.1,13.2,16.4,14.8,23.2,25.3c-4.5,3.6-8.7,6.9-12.9,10.3c-4.6-5.4-9.1-10.9-13.7-16.3
			c-1.7,1.7-3.4,3.4-5.1,5.1c5.5,4.2,11,8.4,16.5,12.7c-6.8,4.7-13.6,9.5-20.4,14.2c0,0,0,0-0.1,0c-0.1,0.1-0.1,0.2-0.2,0.3
			c0.1,0,0.1-0.1,0.2-0.1c-15.4,11.9-30.1,24.7-46.3,35.5c-11.5,7.6-24.6,12.9-37.2,18.5c-9.8,4.3-12,11.4-5.9,20
			c4,5.5,7,11.7,10.1,16.9c-6.1,3.4-9.8,5.5-13.4,7.5c3.7,4.4,7.5,8.7,13.3,15.4c-0.2,1.3-1,6.2-1.8,11.4
			c-9.3,0.4-16.8,1.8-7.5,12.9c1.8,2.2,2.8,6.5,2,9.1c-2.7,9-6.4,17.7-9.2,25.1c-5.9-0.4-10.7-0.8-15.5-1.1c2,5.9,4.1,11.8,6.9,20.1
			c-3.9,6.6-9.1,15.5-14.4,24.4c-1.3-0.6-2.5-1.2-3.8-1.8c2.4-5.4,4.9-10.9,7.4-16.6c-1.9-5.8-4.9-12.8-6.3-20
			c-0.6-2.7,2.8-6.1,3.3-9.3c0.7-4,1.9-9,0.3-12.1c-4.2-7.7-7.9-14.1,1.5-20.9c1.5-1.1,1.4-7.2-0.1-9.2c-8-9.9-8.4-18.4,3.6-25.7
			c-3.2-5.3-7.2-9.6-8.2-14.5c-0.8-4,2.3-8.7,3.3-13.2c0.8-3.3,2.9-8.4,1.5-10c-8.9-10-7.7-18.4,1.4-24.9
			c-2.4-8.7-8.7-19.6-5.9-23.1c7.7-9.4,0-16.4,0.7-23.2c1.5-14.5,2.6-28.2-0.9-42.4c-0.3-1.3,6-4.2,9.2-6.4
			c-8.1-12.4-17.8-22.7-1.4-33.3c-6-11-17.9-21.9,0.4-31.6c-6-10.8-16-19.1-3.2-31.6c7.6-7.4,12.7-7,19.5-1.9
			c5.4,4.1,8.7,6.6,14.3-0.9c1.9-2.6,11.7,0.5,17.8,1.4c3.7,0.5,9.7,3.5,10.5,2.4c9.4-13,17.7-5.7,26.2,0.7c0.6,0.5,1.7,0.5,3.4,0.9
			c7.6-10.4,16.4-11.4,26.4-2c1.5,1.4,7.4,0.6,8.9-1.2c6.6-8,13.2-5.9,19.8-1c4.8,3.5,7.5,6.2,13.4,0c2.9-3,12.3,0.1,18.7,0.6
			c3.9,0.3,9.9,2.3,11.3,0.6c6.7-8.3,13.1-5.9,19.8-1.2c5,3.5,8.8,8.2,13.9-1c1.3-2.4,11.6-1.7,16.6,0.4c5.8,2.5,9.3,8.5,15.5-0.6
			c1.7-2.5,11.8,0.4,18,1.3c3.6,0.5,9.6,3.6,10.4,2.5c8.8-12.1,16.8-6.7,25.1,0.2c1,0.8,2.5,0.9,4.6,1.7
			c7.6-11.4,16.4-11.5,26.4-2.2c1.5,1.4,5.7,0.6,8.3-0.2c7.7-2.4,15.2-5.3,22.8-8c0.8,2.4,1.5,4.8,2.3,7.2
			C481.6,197.3,476.2,198.5,471,200.2z M436,197.2c-0.9,2.5-3.2,5.9-2.4,7.3c3.2,5,7.4,9.3,11.6,13.6c0.3,0.3,5.6-3.6,5.5-3.8
			c-3-5.1-6.4-10.1-9.7-15C439.4,198.6,437.7,197.9,436,197.2z M401.2,205.4c3.3,4.5,7.3,8.6,11.6,12.3c0.5,0.4,4.2-2.9,6.4-4.6
			c-3.6-4.8-7.1-9.6-11.9-16C404.2,201.3,400.8,204.8,401.2,205.4z M373.5,241.5c4.7,5.7,10,10.9,15.5,15.8c0.3,0.3,6-4.7,5.8-4.8
			c-4.5-6.3-9.3-12.4-15.7-20.4C376.1,237.1,372.9,240.9,373.5,241.5z M370.9,259.4c-0.3-0.2-5.9,4.9-5.5,5.4
			c3.2,5,7.1,9.6,12.3,16.3c2.7-5,5.8-8.7,5-9.7C379.4,266.8,375.1,263,370.9,259.4z M382,217.9c0.6,0.5,4.1-2.8,8.7-6
			c-6.5-4.9-10.9-8.5-15.6-11.4c-0.5-0.3-5.4,5.4-5.2,5.6C373.5,210.4,377.5,214.5,382,217.9z M341.2,240.9
			c5.4,5.7,11.1,11,17.1,16.1c0.2,0.1,5.1-4.4,4.9-4.6c-4.5-6.4-9.3-12.5-15.4-20.4C344.3,236.7,340.8,240.6,341.2,240.9z
			 M349.6,217.8c0.9,0.7,4.6-2.2,9.8-4.7c-6.7-5.4-11.2-9.3-16.2-12.5c-0.4-0.3-5.5,5.1-5.3,5.3
			C341.5,210.2,345.2,214.5,349.6,217.8z M333,263.5c3.9,4.5,7.5,9.3,11.9,13.3c0.8,0.7,4.6-2.1,10-4.7c-6.7-5.4-11.1-9.4-16.1-12.6
			C338,259,335,262.1,333,263.5z M314.6,235.6c-1.6,1.9-4.9,5-4.5,5.5c4.5,6.3,9.6,12.3,16,20.1c2.9-4.8,6.1-8.7,5.6-9.3
			C326.3,246.2,320.4,241,314.6,235.6z M318.3,217.9c0.6,0.6,4.4-2.4,9.5-5.5c-7-5.1-11.5-8.7-16.5-11.6c-0.7-0.4-3.5,2.8-5.4,4.4
			C309.9,209.6,313.8,214.2,318.3,217.9z M274.3,205.3c4.2,4.3,8.2,8.7,12.8,12.6c0.5,0.4,3.7-2.4,7.9-5.3
			c-6.1-4.9-10.6-8.8-15.6-12.1C279,200.3,276.1,203.6,274.3,205.3z M246.5,241.3c5.3,5.7,11,11,16.9,16.1c0.3,0.2,3.5-3,7.1-6.2
			c-6.9-5.9-13-10.9-19-16C249.8,237.4,246.3,241,246.5,241.3z M260.3,212.9c-3.9-4.6-8.3-8.8-12.9-12.7c-0.3-0.2-5.2,4.1-5,4.4
			c3.1,5.1,6.8,9.8,11.6,16.4C257.3,217,260.7,213.3,260.3,212.9z M243.9,259.4c-1.9,2-5.7,5.2-5.3,5.8c2.8,4.8,6.5,9,11.4,15.4
			c2.9-4.6,6.1-8.2,5.5-9C252.1,267.1,247.8,263.3,243.9,259.4z M232.4,345.5c0.1-0.2,0.2-0.4,0.2-0.6c0.1-0.3,0.1-0.5,0.2-0.8
			c0-0.3,0.1-0.6,0.1-0.9c0-0.4,0-0.7-0.1-1c-0.1-0.3-0.1-0.6-0.3-0.9c-0.1-0.3-0.3-0.6-0.4-0.9c-0.1-0.1-0.2-0.3-0.3-0.4
			c-0.1-0.2-0.3-0.4-0.5-0.6c0-0.1-0.1-0.1-0.1-0.2c-0.2-0.2-0.4-0.4-0.6-0.6c-2-1.9-5-3.5-7.1-5.4c-0.3-0.3-0.5-0.5-0.8-0.8
			c-0.5-0.5-0.9-1-1.2-1.6c-0.9-1.5-5.9-0.8-9-1.2c2.6,5.2,4.6,10.8,8,15.4c0.2,0.3,0.5,0.6,0.8,0.9c0.3,0.3,0.6,0.5,0.9,0.8
			c0.7,0.5,1.5,0.9,2.4,1.3c0.8,0.4,1.5,0.7,2.3,1c0.9,0.4,1.8,0.8,2.6,1.2c0.4-0.4,0.8-0.9,1.1-1.3
			C231.4,347.7,232.1,346.5,232.4,345.5z M215.2,294.7c-1.8,2-5.5,5.5-5.2,5.9c4.7,6.2,9.9,11.9,17,20.2c2.3-5.9,4.7-9.7,3.9-10.6
			C226.1,304.6,220.5,299.7,215.2,294.7z M219.6,236c-0.3-0.3-5.5,5.3-5.3,5.5c4.9,5.6,10,11,15.7,15.9c0.8,0.6,4.6-2.3,9.9-5.2
			C231.9,245.5,225.9,240.5,219.6,236z M228.3,212.9c-3.9-4.5-8.3-8.4-12.7-12.5c-1.6,1.8-4.9,4.9-4.5,5.4
			c3.3,4.9,7.3,9.4,12.3,15.4C226.1,216.8,228.8,213.5,228.3,212.9z M218.4,277c0.6,0.5,4.4-2.7,9-5.6c-6.4-4.9-10.9-8.8-15.9-11.9
			c-0.6-0.4-3.5,2.9-5.3,4.5C210.2,268.4,214,273.1,218.4,277z M182.4,241.5c5.5,5.5,11.4,10.4,17.3,15.5c1.5-1.8,4.7-4.8,4.4-5.2
			c-4.6-6.2-9.6-12.1-15.9-19.7C185.1,237,182,241.1,182.4,241.5z M191.4,217.8c0.8,0.5,4.2-2.9,8.6-6c-6.6-4.8-11.4-8.3-16.3-11.8
			c-1.6,2.3-5,6.1-4.6,6.5C182.7,210.7,186.9,214.6,191.4,217.8z M188.1,341.9c0.3,0.3,5.5-4,5.4-4.1c-3.2-5-6.7-9.6-13.1-18.2
			c-2.4,5-5.1,8.3-4.4,9.3C179.5,333.7,183.8,337.9,188.1,341.9z M175.9,362c3.5,4.3,7.3,8.6,11.7,11.9c0.9,0.7,4.5-2.1,9.7-4.6
			c-6.7-5.5-11.2-9.5-16-12.7C180.8,356.3,175.7,361.8,175.9,362z M180.7,292.9c-0.4-0.3-4.9,4.4-4.7,4.7c3.4,4.5,6.9,9,11.2,12.7
			c0.8,0.7,4.6-2.2,10-4.9C190.2,300,185.6,296.2,180.7,292.9z M186.7,276.9c0.6,0.5,4.3-2.7,9.1-5.8c-6.8-4.9-11.5-8.6-16.5-11.6
			c-0.5-0.3-4.9,4.4-4.7,4.5C178.3,268.6,182.2,273.1,186.7,276.9z M152.3,274.6c5.4,5.8,11.1,11.2,16.8,16.7
			c1.6-1.9,4.8-4.9,4.5-5.4c-4.5-6.3-9.4-12.1-15.4-19.5C154.9,270.9,152,274.2,152.3,274.6z M173.4,317.4
			c-5.2-5.8-10.8-11.2-16.4-16.7c-1.7,1.8-5.1,4.9-4.9,5.2c4.7,6.3,9.9,12.2,16.1,19.6C171.1,321.2,173.9,317.9,173.4,317.4z
			 M168.1,257.6c1.6-1.9,4.8-5,4.5-5.4c-4.5-6.3-9.6-12.2-16.1-20.1c-2.9,5.2-5.9,9.1-5.4,9.7C156.4,247.4,162.4,252.4,168.1,257.6z
			 M151.7,370.1c5.9,5.3,11.5,10.9,17.8,15.6c1.1,0.8,4.7-1.6,9.9-3.6c-10.1-8.4-15.7-13.4-21.8-17.7
			C157.3,364.1,153.7,368.1,151.7,370.1z M167.4,354.1c0.7,0.7,4.5-2,9.8-4.5c-7.5-6.9-12.7-12-18.5-16.5c-0.6-0.5-4.2,3-6.4,4.7
			C157.2,343.3,162,349.1,167.4,354.1z M164.6,212.2c-2.9-4.7-6.7-8.9-10.9-14.3c-3.2,3.6-6.5,6.7-6.3,7c3.8,4.6,8.1,8.9,12.2,13.2
			C161.4,216.1,165,212.9,164.6,212.2z M129.6,473.8c0.1,0.1,5-4.2,4.8-4.5c-3.2-5-6.9-9.7-11.4-15.6c-3.1,3.7-6.3,6.9-6,7.2
			C120.9,465.5,125.2,469.8,129.6,473.8z M117,238.8c3.9,4.4,8.3,8.4,12.8,12.2c0.1,0.1,4.8-4.3,4.6-4.7c-3.3-4.8-7.1-9.3-11.8-15.1
			C119.6,235.2,116.7,238.4,117,238.8z M130,283.5c1.5-1.9,4.7-4.7,4.3-5.4c-3.1-5-6.9-9.6-11.6-16c-3,4.6-6.3,8.5-5.8,9.1
			C120.8,275.7,125.5,279.5,130,283.5z M133,212.2c-3.4-4.4-7.6-8.1-11.9-11.6c-0.3-0.3-5.7,4.6-5.5,5c3.2,4.9,7,9.4,12.4,16.1
			C130.8,216.6,133.7,213,133,212.2z M116.5,429.1c4.5,4.5,9,9.1,13.8,13.3c0.3,0,3.3-3.1,6.8-6.4c-5.7-4.5-10.2-8.4-15.2-11.6
			C121.4,424.1,118.4,427.4,116.5,429.1z M116.8,492.5c4.1,4.5,8.1,9,12.5,13.1c0.4,0.4,3.8-2.4,8.2-5.2
			c-5.9-5.1-10.4-9.2-15.2-12.7C121.9,487.3,118.7,490.8,116.8,492.5z M117,397.8c3.5,4.3,7.1,8.7,11.4,12.2c0.9,0.7,4.6-2,10.1-4.7
			c-7.1-5.2-11.7-8.9-16.7-11.9C121.2,393,116.9,397.7,117,397.8z M138.3,310.3c-6.7-5.5-11-9.6-15.9-12.8c-0.8-0.5-3.8,2.6-5.9,4
			c3.8,4.5,7.4,9.3,11.7,13.4C129,315.5,132.9,312.8,138.3,310.3z M122.5,329c-0.7-0.5-3.7,2.7-5.7,4.1c3.7,4.6,7.3,9.3,11.5,13.4
			c0.7,0.6,4.6-2.1,10.1-4.7C131.7,336.3,127.3,332.3,122.5,329z M117,366.4c3.3,4.5,7.3,8.4,11.6,12c0.4,0.3,6-4.5,5.8-4.7
			c-3.2-4.9-6.8-9.5-12-16.2C119.5,362.1,116.5,365.6,117,366.4z"/>
		<g>
			<path class="st0" d="M512.2,165.6c-10.5,2.1-20.9,7.2-31.3,7.2c-117.5,0.5-235,0.4-352.5,0.4c-3.6,0-9,0.8-10.5-1.2
				c-10-12.3-22.6-4-35.7-6.7c0,7.1-0.8,11.8,0.2,16.2c2,10,7.2,19.8,7.2,29.7c0.5,118,0.4,236,0.3,354c0,3.6,0.7,8.8-1.3,10.5
				c-12,10.2-4.1,22.5-6.1,34.2h33.3c-4-13.7,1-23.3,12.5-28.8c23.8-11.3,47.2-24.1,72.1-32.5c24.7-8.3,50.8-12.2,74.8,5.4
				c6.3,4.6,10.6,0.5,13.2-6.4c3.9-10.5,7-21.8,13.3-30.8c21.2-30.6,43.6-60.3,68.1-93.9c7.8,10.8,13.5,18.6,17.5,24.2
				c16.9-16.8,32-31.7,49.1-48.7c-21.1-20.5-43.2-42.1-65.7-63.9c37.2-37.2,73.6-74,110.3-110.2c12.8-12.7,22.7-30.9,45.4-26.2
				v-32.6C521.1,165.5,516.5,164.8,512.2,165.6z M270.2,530.2c-34.4-12.1-68.8-2.2-102.9,11.1c-1.8-1.9-3.6-3.9-5.4-5.8
				c19.1-16.4,38-33,57.3-49c2.1-1.8,6.8-0.8,10.3-0.5c17.3,1.3,31.1-10.2,31.5-26.7c0.4-16-12.7-28.5-29-27.6
				c-16.5,0.9-27.4,15-25.6,32.4c0.4,4-0.1,9.5-2.5,12c-16.3,17.2-33.3,33.8-53,53.6c11.6-38.2,24.4-72.4,10.9-107.1
				c39.3-28.4,78-56.2,115.9-83.5c24.8,24.8,50.2,50.3,75.8,75.8C326.9,451.6,299.2,489.9,270.2,530.2z M223.6,458.9
				c3-3.3,5.9-9.1,9.2-9.4c3.9-0.4,8.2,4,15.6,8.2c-6.7,5.1-10.5,10.2-13.5,9.7C230.8,466.8,227.3,462,223.6,458.9z M408.3,403.6
				c-4.9,4.3-11.8,10.6-17.8,15.9c-38.4-38.4-78.8-79-120-120.2c5.3-5.2,11.8-11.5,17.3-16.9C328.3,323.1,368.4,363.4,408.3,403.6z
				 M471,200.2c-2.3,0.8-6.1,3.3-5.9,3.9c4,10.8-3.7,12.7-10.6,17.7c-8.6,6.3-14.2,16.7-21.2,25.3c-1.1,1.3-2.7,2.2-5.5,4.4
				c-3.4-4-6.1-8.6-10-11.3c-3-2.1-7.6-2-11.5-2.9c1.1,4,1.5,8.4,3.6,11.8c2.3,3.8,6.1,6.6,10.7,11.4c-3.3,1.7-6.3,4.5-9.2,4.4
				c-4.6-0.1-9.1-2.2-13.7-3.3c1.3,4.9,2.6,9.8,4.3,16.4c0.5-1.3,0.4,0.1-0.2,0.3c-5.7,2.3-8.9,5.9-16.3,16.1
				c-1.2,1.6-5.4,0.7-8.1,1.7c-3.1,1.1-8.4,2.5-8.6,4.4c-1.7,13.7-1.4,13.7-9.8,19.3c-2.2-5.7-3.2-12.9-7.3-17.3
				c-3.8-4.2-10.8-5.5-17.6-8.7c-0.5-2.2-0.5-8.2-3.3-12c-1.6-2.1-8.1-0.4-11.5-0.4c-1.4-5.3-1.7-12.1-5-16.4
				c-2.7-3.5-9.3-3.9-13.6-5.5c-3.4-6.1-6.6-13.4-11.3-19.6c-1.5-2.1-6.8-1.5-10.3-2.1c0.7,3.2,0.9,6.8,2.3,9.6
				c1.6,3.1,4.5,5.5,9,10.9c-2.5,1.1-4.7,3-6.7,2.8c-8.6-0.8-19.2-4.5-11.6,11.3c0.2,0.5-0.6,1.8-1.3,2.3
				c-9.2,7.9-18.4,15.7-29.1,24.6c0.1,13.2,16.4,14.8,23.2,25.3c-4.5,3.6-8.7,6.9-12.9,10.3c-0.8,0.5-1.5,1.1-2.3,1.5
				c-6.8,4.7-13.6,9.5-20.4,14.2v0c0,0,0,0-0.1,0.1c-15.4,11.9-30.1,24.7-46.3,35.5c-11.5,7.6-24.6,12.9-37.2,18.5
				c-9.8,4.3-12,11.4-5.9,20c4,5.5,7,11.7,10.1,16.9c-6.1,3.4-9.8,5.5-13.4,7.5c3.7,4.4,7.5,8.7,13.3,15.4c-0.2,1.3-1,6.2-1.8,11.4
				c-9.3,0.4-16.8,1.8-7.5,12.9c1.8,2.2,2.8,6.5,2,9.1c-2.7,9-6.4,17.7-9.2,25.1c-5.9-0.4-10.7-0.8-15.5-1.1
				c2,5.9,4.1,11.8,6.9,20.1c-3.9,6.6-9.1,15.5-14.4,24.4c-1.3-0.6-2.5-1.2-3.8-1.8c2.4-5.4,4.9-10.9,7.4-16.6
				c-1.9-5.8-4.9-12.8-6.3-20c-0.6-2.7,2.8-6.1,3.3-9.3c0.7-4,1.9-9,0.3-12.1c-4.2-7.7-7.9-14.1,1.5-20.9c1.5-1.1,1.4-7.2-0.1-9.2
				c-8-9.9-8.4-18.4,3.6-25.7c-3.2-5.3-7.2-9.6-8.2-14.5c-0.8-4,2.3-8.7,3.3-13.2c0.8-3.3,2.9-8.4,1.5-10c-8.9-10-7.7-18.4,1.4-24.9
				c-2.4-8.7-8.7-19.6-5.9-23.1c7.7-9.4,0-16.4,0.7-23.2c1.5-14.5,2.6-28.2-0.9-42.4c-0.3-1.3,6-4.2,9.2-6.4
				c-8.1-12.4-17.8-22.7-1.4-33.3c-6-11-17.9-21.9,0.4-31.6c-6-10.8-16-19.1-3.2-31.6c7.6-7.4,12.7-7,19.5-1.9
				c5.4,4.1,8.7,6.6,14.3-0.9c1.9-2.6,11.7,0.5,17.8,1.4c3.7,0.5,9.7,3.5,10.5,2.4c9.4-13,17.7-5.7,26.2,0.7
				c0.6,0.5,1.7,0.5,3.4,0.9c7.6-10.4,16.4-11.4,26.4-2c1.5,1.4,7.4,0.6,8.9-1.2c6.6-8,13.2-5.9,19.8-1c4.8,3.5,7.5,6.2,13.4,0
				c2.9-3,12.3,0.1,18.7,0.6c3.9,0.3,9.9,2.3,11.3,0.6c6.7-8.3,13.1-5.9,19.8-1.2c5,3.5,8.8,8.2,13.9-1c1.3-2.4,11.6-1.7,16.6,0.4
				c5.8,2.5,9.3,8.5,15.5-0.6c1.7-2.5,11.8,0.4,18,1.3c3.6,0.5,9.6,3.6,10.4,2.5c8.8-12.1,16.8-6.7,25.1,0.2c1,0.8,2.5,0.9,4.6,1.7
				c7.6-11.4,16.4-11.5,26.4-2.2c1.5,1.4,5.7,0.6,8.3-0.2c7.7-2.4,15.2-5.3,22.8-8c0.8,2.4,1.5,4.8,2.3,7.2
				C481.6,197.3,476.2,198.5,471,200.2z"/>
			<path class="st0" d="M229.4,350.2C229.4,350.2,229.4,350.2,229.4,350.2c-0.1,0-0.2,0.1-0.3,0.2c0.1,0,0.1-0.1,0.2-0.1
				C229.4,350.3,229.4,350.3,229.4,350.2C229.4,350.2,229.4,350.2,229.4,350.2c6.8-4.7,13.6-9.5,20.4-14.2
				C243,340.8,236.2,345.5,229.4,350.2z"/>
			<path class="st0" d="M252.1,334.5c-0.8,0.5-1.5,1.1-2.3,1.5c-5.5-4.2-11-8.4-16.5-12.7c1.7-1.7,3.4-3.4,5.1-5.1
				C242.9,323.7,247.5,329.1,252.1,334.5z"/>
			<path class="st0" d="M363.2,252.4c0.2,0.3-4.6,4.8-4.9,4.6c-6-5.1-11.8-10.4-17.1-16.1c-0.4-0.4,3.1-4.2,6.5-8.9
				C353.9,239.9,358.7,246,363.2,252.4z"/>
			<path class="st0" d="M394.8,252.5c0.1,0.1-5.5,5.1-5.8,4.8c-5.5-4.9-10.8-10.1-15.5-15.8c-0.6-0.6,2.6-4.4,5.7-9.4
				C385.5,240.2,390.4,246.2,394.8,252.5z"/>
			<path class="st0" d="M326,261.2c-6.4-7.9-11.4-13.8-16-20.1c-0.4-0.5,2.9-3.6,4.5-5.5c5.8,5.4,11.7,10.6,17,16.3
				C332.1,252.5,329,256.4,326,261.2z"/>
			<path class="st0" d="M172.6,252.2c0.3,0.5-2.9,3.6-4.5,5.4c-5.8-5.2-11.7-10.3-17-15.9c-0.5-0.6,2.4-4.5,5.4-9.7
				C163.1,240.1,168.1,245.9,172.6,252.2z"/>
			<path class="st0" d="M240,252.1c-5.3,2.9-9.1,5.8-9.9,5.2c-5.7-4.8-10.8-10.3-15.7-15.9c-0.2-0.2,5-5.8,5.3-5.5
				C225.9,240.5,231.9,245.5,240,252.1z"/>
			<path class="st0" d="M229.1,350.4c0.1-0.1,0.1-0.2,0.2-0.3c0,0,0,0,0.1,0v0c0,0,0,0-0.1,0.1C229.2,350.4,229.2,350.4,229.1,350.4
				z"/>
			<path class="st0" d="M232.9,343.3c0,0.3,0,0.6-0.1,0.9c0,0.2-0.1,0.5-0.2,0.8c0,0.2-0.1,0.4-0.2,0.6c-0.4,1-1,2.1-2,3.4
				c-0.3,0.4-0.7,0.8-1.1,1.3c-0.8-0.4-1.7-0.8-2.6-1.2c-0.8-0.3-1.5-0.6-2.3-1c-0.9-0.4-1.7-0.8-2.4-1.3c-0.3-0.2-0.6-0.5-0.9-0.8
				c-0.3-0.3-0.6-0.5-0.8-0.9c-3.4-4.6-5.4-10.2-8-15.4c3.1,0.3,8.2-0.4,9,1.2c0.3,0.5,0.7,1.1,1.2,1.6c0.2,0.3,0.5,0.5,0.8,0.8
				c2.1,1.9,5.1,3.5,7.1,5.4c0.2,0.2,0.4,0.4,0.6,0.6c0.1,0.1,0.1,0.1,0.1,0.2c0.2,0.2,0.4,0.4,0.5,0.6c0.1,0.1,0.3,0.3,0.3,0.4
				c0.2,0.3,0.3,0.5,0.4,0.9c0.1,0.3,0.2,0.6,0.3,0.9C232.8,342.6,232.9,342.9,232.9,343.3z"/>
			<path class="st0" d="M227.1,320.7c-7.2-8.2-12.4-14-17-20.2c-0.3-0.4,3.4-3.8,5.2-5.9c5.3,5.1,10.9,9.9,15.7,15.4
				C231.8,311,229.3,314.8,227.1,320.7z"/>
			<path class="st0" d="M168.3,325.5c-6.3-7.4-11.4-13.3-16.1-19.6c-0.3-0.3,3.2-3.5,4.9-5.2c5.5,5.5,11.2,10.9,16.4,16.7
				C173.9,317.9,171.1,321.2,168.3,325.5z"/>
			<path class="st0" d="M270.5,251.2c-3.6,3.2-6.8,6.4-7.1,6.2c-5.9-5.1-11.5-10.4-16.9-16.1c-0.2-0.3,3.2-4,5-6.1
				C257.5,240.3,263.5,245.4,270.5,251.2z"/>
			<path class="st0" d="M177.2,349.7c-5.3,2.5-9.1,5.1-9.8,4.5c-5.4-5.1-10.1-10.8-15.1-16.3c2.2-1.7,5.8-5.1,6.4-4.7
				C164.5,337.6,169.7,342.8,177.2,349.7z"/>
			<path class="st0" d="M179.4,382.1c-5.2,2-8.8,4.5-9.9,3.6c-6.3-4.7-12-10.3-17.8-15.6c2-2,5.6-6,5.9-5.8
				C163.7,368.7,169.3,373.7,179.4,382.1z"/>
			<path class="st0" d="M204,251.8c0.3,0.4-2.8,3.4-4.4,5.2c-5.8-5.1-11.8-10-17.3-15.5c-0.4-0.5,2.7-4.5,5.8-9.5
				C194.5,239.7,199.5,245.6,204,251.8z"/>
			<path class="st0" d="M173.5,286c0.3,0.5-2.9,3.5-4.5,5.4c-5.7-5.5-11.4-10.9-16.8-16.7c-0.3-0.4,2.6-3.7,5.8-8.1
				C164.1,273.8,169.1,279.7,173.5,286z"/>
			<path class="st0" d="M377.6,281c-5.2-6.7-9.1-11.2-12.3-16.3c-0.3-0.5,5.3-5.5,5.5-5.4c4.3,3.6,8.5,7.4,11.8,11.9
				C383.4,272.3,380.3,276,377.6,281z"/>
			<path class="st0" d="M327.8,212.5c-5.1,3-8.8,6-9.5,5.5c-4.5-3.8-8.3-8.3-12.4-12.7c1.9-1.6,4.7-4.8,5.4-4.4
				C316.2,203.8,320.8,207.4,327.8,212.5z"/>
			<path class="st0" d="M390.6,211.9c-4.5,3.2-8,6.5-8.7,6c-4.5-3.4-8.4-7.5-12.2-11.8c-0.2-0.2,4.7-5.9,5.2-5.6
				C379.8,203.4,384.1,207,390.6,211.9z"/>
			<path class="st0" d="M359.4,213.1c-5.2,2.6-8.9,5.5-9.8,4.7c-4.4-3.3-8.1-7.6-11.6-11.9c-0.2-0.2,4.9-5.6,5.3-5.3
				C348.2,203.8,352.7,207.7,359.4,213.1z"/>
			<path class="st0" d="M197.3,369.3c-5.2,2.6-8.8,5.3-9.7,4.6c-4.4-3.4-8.2-7.7-11.7-11.9c-0.2-0.3,4.9-5.7,5.3-5.4
				C186.1,359.8,190.6,363.8,197.3,369.3z"/>
			<path class="st0" d="M137.1,436c-3.5,3.3-6.5,6.4-6.8,6.4c-4.8-4.2-9.2-8.8-13.8-13.3c1.9-1.6,4.8-5,5.4-4.6
				C126.9,427.6,131.4,431.5,137.1,436z"/>
			<path class="st0" d="M354.9,272.1c-5.4,2.6-9.2,5.4-10,4.7c-4.4-4-8-8.7-11.9-13.3c2-1.4,5-4.5,5.8-4
				C343.7,262.7,348.2,266.7,354.9,272.1z"/>
			<path class="st0" d="M419.3,213.1c-2.2,1.6-5.9,5-6.4,4.6c-4.3-3.6-8.3-7.8-11.6-12.3c-0.5-0.6,3-4.2,6.1-8.3
				C412.1,203.6,415.7,208.3,419.3,213.1z"/>
			<path class="st0" d="M199.9,211.8c-4.3,3.1-7.8,6.5-8.6,6c-4.5-3.2-8.7-7-12.3-11.2c-0.4-0.5,2.9-4.3,4.6-6.5
				C188.5,203.5,193.3,207,199.9,211.8z"/>
			<path class="st0" d="M134.3,278.1c0.4,0.6-2.8,3.5-4.3,5.4c-4.5-4-9.2-7.8-13.1-12.3c-0.5-0.5,2.8-4.5,5.8-9.1
				C127.4,268.5,131.2,273.1,134.3,278.1z"/>
			<path class="st0" d="M134.4,373.7c0.1,0.3-5.5,5-5.8,4.7c-4.2-3.6-8.3-7.6-11.6-12c-0.5-0.8,2.5-4.2,5.4-8.8
				C127.6,364.2,131.2,368.8,134.4,373.7z"/>
			<path class="st0" d="M195.8,271.1c-4.8,3.1-8.4,6.3-9.1,5.8c-4.5-3.8-8.4-8.3-12.2-12.9c-0.1-0.1,4.2-4.8,4.7-4.5
				C184.3,262.6,188.9,266.2,195.8,271.1z"/>
			<path class="st0" d="M260.3,212.9c0.4,0.4-3.1,4-6.3,8.1c-4.8-6.6-8.4-11.3-11.6-16.4c-0.2-0.3,4.7-4.6,5-4.4
				C252.1,204.2,256.5,208.3,260.3,212.9z"/>
			<path class="st0" d="M197.1,305.4c-5.3,2.7-9.2,5.6-10,4.9c-4.2-3.7-7.8-8.2-11.2-12.7c-0.2-0.3,4.3-5,4.7-4.7
				C185.6,296.2,190.2,300,197.1,305.4z"/>
			<path class="st0" d="M227.3,271.4c-4.5,2.9-8.4,6.1-9,5.6c-4.4-4-8.2-8.6-12.2-13.1c1.8-1.6,4.7-4.9,5.3-4.5
				C216.4,262.6,220.9,266.5,227.3,271.4z"/>
			<path class="st0" d="M137.5,500.4c-4.4,2.8-7.8,5.6-8.2,5.2c-4.5-4.1-8.4-8.6-12.5-13.1c1.9-1.7,5.1-5.2,5.5-4.9
				C127.1,491.2,131.6,495.3,137.5,500.4z"/>
			<path class="st0" d="M450.8,214.2c0.1,0.2-5.2,4.1-5.5,3.8c-4.2-4.2-8.4-8.6-11.6-13.6c-0.9-1.3,1.5-4.8,2.4-7.3
				c1.7,0.6,3.4,1.3,5,2C444.4,204.2,447.8,209.1,450.8,214.2z"/>
			<path class="st0" d="M134.4,469.3c0.3,0.4-4.6,4.7-4.8,4.5c-4.5-4.1-8.7-8.3-12.6-12.9c-0.3-0.3,2.9-3.5,6-7.2
				C127.5,459.6,131.2,464.3,134.4,469.3z"/>
			<path class="st0" d="M295,212.6c-4.2,2.8-7.5,5.7-7.9,5.3c-4.5-3.9-8.6-8.3-12.8-12.6c1.8-1.7,4.7-5,5.1-4.7
				C284.4,203.8,289,207.7,295,212.6z"/>
			<path class="st0" d="M164.6,212.2c0.4,0.7-3.2,3.9-5,5.9c-4.1-4.4-8.4-8.6-12.2-13.2c-0.2-0.3,3.1-3.4,6.3-7
				C158,203.3,161.7,207.5,164.6,212.2z"/>
			<path class="st0" d="M128,221.7c-5.4-6.7-9.2-11.3-12.4-16.1c-0.2-0.4,5.2-5.3,5.5-5c4.3,3.5,8.5,7.3,11.9,11.6
				C133.7,213,130.8,216.6,128,221.7z"/>
			<path class="st0" d="M138.4,341.9c-5.5,2.6-9.4,5.4-10.1,4.7c-4.2-4.1-7.8-8.8-11.5-13.4c2-1.5,5-4.6,5.7-4.1
				C127.3,332.3,131.7,336.3,138.4,341.9z"/>
			<path class="st0" d="M138.3,310.3c-5.4,2.6-9.3,5.2-10,4.6c-4.3-4-7.9-8.8-11.7-13.4c2-1.4,5.1-4.5,5.9-4
				C127.3,300.7,131.6,304.7,138.3,310.3z"/>
			<path class="st0" d="M138.5,405.3c-5.5,2.7-9.2,5.4-10.1,4.7c-4.3-3.5-7.9-7.8-11.4-12.2c-0.1-0.1,4.2-4.8,4.7-4.5
				C126.7,396.4,131.3,400,138.5,405.3z"/>
			<path class="st0" d="M193.5,337.8c0.1,0.1-5.1,4.4-5.4,4.1c-4.4-4-8.6-8.3-12.1-13c-0.7-0.9,1.9-4.3,4.4-9.3
				C186.8,328.2,190.3,332.9,193.5,337.8z"/>
			<path class="st0" d="M250,280.5c-4.9-6.3-8.6-10.6-11.4-15.4c-0.4-0.6,3.4-3.8,5.3-5.8c4,4,8.2,7.8,11.6,12.2
				C256.1,272.3,252.9,275.9,250,280.5z"/>
			<path class="st0" d="M223.4,221.2c-5-6-9-10.5-12.3-15.4c-0.4-0.5,2.9-3.6,4.5-5.4c4.3,4.1,8.8,8.1,12.7,12.5
				C228.8,213.5,226.1,216.8,223.4,221.2z"/>
			<path class="st0" d="M134.4,246.3c0.3,0.4-4.4,4.8-4.6,4.7c-4.5-3.8-8.8-7.8-12.8-12.2c-0.3-0.4,2.6-3.6,5.5-7.5
				C127.2,237.1,131.1,241.5,134.4,246.3z"/>
		</g>
	</g>
</g>
</svg>
